<svg width="30" height="30" viewBox="0 0 30 30" fill="none" xmlns="http://www.w3.org/2000/svg">
<path d="M9.99805 3C6.13905 3 3 6.14195 3 10.0019V20.0019C3 23.8609 6.14195 27 10.0019 27H20.0019C23.8609 27 27 23.858 27 19.998V9.99805C27 6.13905 23.858 3 19.998 3H9.99805ZM22 7C22.552 7 23 7.448 23 8C23 8.552 22.552 9 22 9C21.448 9 21 8.552 21 8C21 7.448 21.448 7 22 7ZM15 9C18.309 9 21 11.691 21 15C21 18.309 18.309 21 15 21C11.691 21 9 18.309 9 15C9 11.691 11.691 9 15 9ZM15 11C12.7909 11 11 12.7909 11 15C11 17.2091 12.7909 19 15 19C17.2091 19 19 17.2091 19 15C19 12.7909 17.2091 11 15 11Z" fill="#F3F3F3"/>
</svg>
