<svg width="34" height="26" viewBox="0 0 34 26" fill="none" xmlns="http://www.w3.org/2000/svg">
<path d="M2.02488 0.809658C1.49114 0.80211 0.994686 1.08253 0.725607 1.54355C0.456536 2.00457 0.456536 2.57475 0.725607 3.03577C0.994679 3.49679 1.49114 3.77721 2.02488 3.76967H31.6249C32.1586 3.77721 32.6551 3.49679 32.9242 3.03577C33.1932 2.57475 33.1932 2.00457 32.9242 1.54355C32.6551 1.08253 32.1586 0.80211 31.6249 0.809658H2.02488ZM2.02488 11.9097C1.49114 11.9021 0.994686 12.1825 0.725607 12.6436C0.456536 13.1046 0.456536 13.6748 0.725607 14.1358C0.994679 14.5968 1.49114 14.8772 2.02488 14.8697H31.6249C32.1586 14.8772 32.6551 14.5968 32.9242 14.1358C33.1932 13.6748 33.1932 13.1046 32.9242 12.6436C32.6551 12.1825 32.1586 11.9021 31.6249 11.9097H2.02488ZM2.02488 23.0097C1.49114 23.0021 0.994686 23.2825 0.725607 23.7436C0.456536 24.2046 0.456536 24.7747 0.725607 25.2358C0.994679 25.6968 1.49114 25.9772 2.02488 25.9697H31.6249C32.1586 25.9772 32.6551 25.6968 32.9242 25.2358C33.1932 24.7747 33.1932 24.2046 32.9242 23.7436C32.6551 23.2825 32.1586 23.0021 31.6249 23.0097H2.02488Z" fill="#23410B"/>
</svg>
