<svg width="30" height="30" viewBox="0 0 30 30" fill="none" xmlns="http://www.w3.org/2000/svg">
<path d="M24 4H6C4.895 4 4 4.895 4 6V24C4 25.105 4.895 26 6 26H24C25.105 26 26 25.105 26 24V6C26 4.895 25.105 4 24 4ZM21.361 18.967L19.493 18.993C19.493 18.993 19.09 19.072 18.563 18.708C17.864 18.228 17.205 16.979 16.691 17.141C16.17 17.307 16.186 18.431 16.186 18.431C16.186 18.431 16.19 18.629 16.071 18.758C15.942 18.897 15.689 18.883 15.689 18.883H14.852C14.852 18.883 13.006 19.036 11.379 17.34C9.607 15.491 8.041 11.842 8.041 11.842C8.041 11.842 7.949 11.612 8.047 11.494C8.158 11.364 8.457 11.36 8.457 11.36L10.457 11.35C10.457 11.35 10.645 11.383 10.781 11.483C10.892 11.565 10.955 11.719 10.955 11.719C10.955 11.719 11.278 12.538 11.707 13.28C12.543 14.726 12.931 15.043 13.215 14.888C13.629 14.662 13.505 12.844 13.505 12.844C13.505 12.844 13.513 12.184 13.297 11.89C13.129 11.661 12.813 11.593 12.675 11.576C12.562 11.561 12.746 11.299 12.986 11.181C13.346 11.005 13.982 10.995 14.733 11.002C15.318 11.008 15.487 11.044 15.715 11.1C16.405 11.267 16.171 11.911 16.171 13.456C16.171 13.951 16.082 14.647 16.438 14.876C16.592 14.975 16.967 14.891 17.902 13.297C18.347 12.541 18.68 11.653 18.68 11.653C18.68 11.653 18.753 11.495 18.866 11.427C18.982 11.357 19.138 11.379 19.138 11.379L21.243 11.366C21.243 11.366 21.875 11.29 21.978 11.577C22.086 11.877 21.742 12.578 20.882 13.725C19.47 15.609 19.313 15.434 20.486 16.524C21.606 17.565 21.837 18.071 21.876 18.135C22.339 18.906 21.361 18.967 21.361 18.967Z" fill="#F3F3F3"/>
</svg>
